<?xml version="1.0" encoding="UTF-8"?>
<svg version="1.1" xmlns="http://www.w3.org/2000/svg" width="1080" height="1080">
<path d="M0 0 C5.83803769 2.50201615 7.61189469 6.44528602 10 12 C10.94599545 14.76771849 11.6789814 17.5656695 12.38183594 20.40380859 C12.58724503 21.20155701 12.79265411 21.99930542 13.00428772 22.82122803 C13.67315006 25.42813323 14.3289457 28.03812571 14.984375 30.6484375 C15.44875051 32.47085947 15.91387052 34.29309188 16.37969971 36.11514282 C17.34999557 39.91798738 18.3143673 43.72226418 19.27392578 47.52783203 C20.50563334 52.41255262 21.7474509 57.29462753 22.9930687 62.17581749 C24.18100854 66.83251033 25.36421822 71.49040061 26.546875 76.1484375 C26.88657948 77.48422411 26.88657948 77.48422411 27.23314667 78.84699631 C27.86995499 81.35486614 28.50341986 83.86355445 29.13574219 86.37255859 C29.32582352 87.11956024 29.51590485 87.86656189 29.71174622 88.63619995 C31 93.77023837 31 93.77023837 31 96 C39.66046578 92.97981485 48.32046296 89.95828832 56.98019791 86.93600845 C59.11725485 86.19020296 61.25434996 85.44450695 63.39144897 84.69882202 C78.88691573 79.29167602 94.37879435 73.87479419 109.85546875 68.4140625 C111.09039063 67.97852554 112.3253125 67.54298859 113.59765625 67.09425354 C119.43685922 65.03441155 125.27505648 62.9717835 131.11181641 60.9050293 C133.21644489 60.16187168 135.32109843 59.41878498 137.42578125 58.67578125 C138.35545212 58.34546906 139.28512299 58.01515686 140.2429657 57.67483521 C160.05184885 50.69219283 160.05184885 50.69219283 170 52 C173.55447004 53.84832442 174.57352537 55.16643595 176.375 58.6875 C177.45203633 64.39579254 177.24458453 69.00866475 174.125 74 C170.79727553 77.47941561 166.91577323 80.3814892 163.16015625 83.37890625 C159.62155907 86.2582763 156.31686815 89.37057158 153 92.5 C148.08744196 97.12671231 143.04873142 101.47274798 137.77734375 105.69140625 C134.57557201 108.35279458 131.53765082 111.15462246 128.5 114 C124.60423719 117.64888449 120.66665716 121.15698438 116.5 124.5 C111.09563218 128.83927344 106.05044877 133.50396415 100.984375 138.2265625 C97.39601051 141.57138295 93.7230364 144.80606062 90 148 C89.44038574 148.48065918 88.88077148 148.96131836 88.30419922 149.45654297 C84.20662702 152.97551062 80.10457539 156.48920448 76 160 C82.55236399 166.11782676 89.16827723 172.06005072 96.15234375 177.6875 C99.30621373 180.24866739 102.40594359 182.86723431 105.5 185.5 C109.44630168 188.85470341 113.41642821 192.17222437 117.4375 195.4375 C122.30129025 199.39508188 127.05881231 203.46542446 131.80834961 207.55834961 C135.33298919 210.58945289 138.89039882 213.56985316 142.5 216.5 C147.34058234 220.4294139 152.07401931 224.47167508 156.79101562 228.54760742 C160.4684643 231.71672078 164.20475453 234.78558548 168 237.8125 C175.35674389 243.82772 180.91486927 249.48446495 182.31640625 259.19140625 C182.63161965 265.03810639 181.39361618 270.17952247 178 275 C173.08345849 279.39652269 167.40932259 279.31885354 161.11425781 279.22583008 C156.46913763 278.88898968 152.48099613 277.65105284 148.125 276.0625 C146.63444092 275.54284668 146.63444092 275.54284668 145.11376953 275.01269531 C141.39891073 273.70271594 137.69867342 272.35476648 134 271 C132.42383452 270.42494993 130.84766229 269.84991833 129.27148438 269.27490234 C118.79191557 265.44523676 108.33050146 261.56725736 97.87438965 257.67407227 C89.59143282 254.59019836 81.3044528 251.51727001 73.015625 248.44921875 C72.39204731 248.21839474 71.76846962 247.98757072 71.12599564 247.74975204 C68.01698379 246.5989326 64.90794339 245.44819031 61.79888916 244.29748535 C55.93062615 242.12519561 50.06295207 239.95131681 44.1953125 237.77734375 C43.16013489 237.39382248 42.12495728 237.01030121 41.05841064 236.61515808 C38.70559907 235.74346039 36.35279695 234.87173718 34 234 C33.82739655 235.85520012 33.82739655 235.85520012 33.65130615 237.74787903 C32.99821915 243.59072379 31.80086308 249.28737039 30.57910156 255.03393555 C30.33339417 256.20579407 30.08768677 257.37765259 29.83453369 258.58502197 C29.02508478 262.43669697 28.20864246 266.28685768 27.390625 270.13671875 C27.1080533 271.46922921 26.82553972 272.801752 26.54308319 274.13428688 C25.21653634 280.38977166 23.88577413 286.64434105 22.54975533 292.89780968 C21.01221172 300.09524585 19.4894569 307.29560756 17.97903466 314.49878281 C16.80672982 320.08471421 15.6207822 325.66764179 14.42462897 331.24851447 C13.71209401 334.57458405 13.00541583 337.90164157 12.31317902 341.23200035 C11.53825067 344.94319774 10.74113864 348.64896493 9.93847656 352.35424805 C9.71490479 353.44997635 9.49133301 354.54570465 9.26098633 355.67463684 C7.91510824 361.75793083 6.56490368 365.67238036 2 370 C-2.2179991 371.70920659 -6.06988701 371.31588743 -10.3125 369.875 C-19.55035098 363.42998769 -20.44485882 351.5181978 -22.61962891 341.15625 C-22.86229996 340.01683456 -23.10497101 338.87741913 -23.35499573 337.70347595 C-24.14929865 333.96977583 -24.9378559 330.23488588 -25.7265625 326.5 C-26.27994439 323.89581977 -26.83370668 321.2917236 -27.38803101 318.68774414 C-28.98984728 311.15899706 -30.58540277 303.62892996 -32.18038177 296.09873199 C-34.21717351 286.4844613 -36.25720102 276.87087932 -38.30209863 267.25832939 C-39.25543678 262.77579311 -40.20416499 258.29229469 -41.15200806 253.80859375 C-41.64758312 251.47523019 -42.143293 249.14189526 -42.63916016 246.80859375 C-42.86462021 245.73745834 -43.09008026 244.66632294 -43.32237244 243.56272888 C-43.52976547 242.58997513 -43.73715851 241.61722137 -43.95083618 240.61499023 C-44.13037653 239.76702377 -44.30991688 238.91905731 -44.49489784 238.0453949 C-44.93231289 235.95225968 -44.93231289 235.95225968 -46 234 C-46.65967773 234.31001953 -47.31935547 234.62003906 -47.99902344 234.93945312 C-62.30867709 241.65214146 -76.67059741 248.22972105 -91.125 254.625 C-104.36080589 260.48185842 -117.56698223 266.40023072 -130.75 272.375 C-134.30466454 273.98572775 -137.85934778 275.59641424 -141.4140625 277.20703125 C-142.29427063 277.60588028 -143.17447876 278.00472931 -144.08135986 278.41566467 C-153.42223138 282.64685618 -162.77273088 286.8565733 -172.125 291.0625 C-173.35663879 291.6164444 -173.35663879 291.6164444 -174.61315918 292.18157959 C-178.75273514 294.04334255 -182.89244385 295.9048101 -187.03222656 297.76611328 C-192.85465822 300.38410283 -198.67640259 303.003619 -204.49780273 305.62390137 C-208.64284043 307.48959249 -212.78824851 309.35444939 -216.93457031 311.21728516 C-224.71968487 314.71600994 -232.50054087 318.22345354 -240.26873779 321.75961304 C-243.92298536 323.4224578 -247.57932917 325.08066412 -251.23583984 326.73852539 C-252.9719183 327.52722856 -254.70697625 328.31818257 -256.44091797 329.11157227 C-281.71682412 340.67511366 -281.71682412 340.67511366 -291 338 C-293.63602525 336.67644951 -295.90020717 335.09979283 -298 333 C-298.17953634 330.94269019 -298.26817412 328.87715304 -298.3125 326.8125 C-298.34988281 325.68457031 -298.38726562 324.55664062 -298.42578125 323.39453125 C-297.7810449 318.25438545 -295.49167478 315.31048966 -291.65234375 311.9375 C-290.75644531 311.298125 -289.86054688 310.65875 -288.9375 310 C-287.34035156 308.84177734 -287.34035156 308.84177734 -285.7109375 307.66015625 C-285.12022461 307.23750488 -284.52951172 306.81485352 -283.92089844 306.37939453 C-280.27835919 303.7636921 -276.67311675 301.09699666 -273.0625 298.4375 C-272.25731934 297.84573975 -271.45213867 297.25397949 -270.62255859 296.64428711 C-263.65978817 291.51579491 -256.77765274 286.28580648 -249.90844727 281.03295898 C-243.14391651 275.86235151 -236.34065078 270.74586595 -229.52197266 265.64697266 C-223.46605617 261.11306149 -217.44682186 256.5329288 -211.4375 251.9375 C-204.67297603 246.7663248 -197.86602194 241.66063408 -191 236.625 C-184.22213048 231.65401147 -177.52697557 226.5984084 -170.88085938 221.45214844 C-159.41357043 212.59863927 -147.86394245 203.86242648 -136.17871094 195.29882812 C-122.28347884 185.09315953 -108.64772146 174.53330636 -95 164 C-98.94595512 159.83184546 -103.21917385 156.42928556 -107.8125 153 C-113.71598108 148.54298684 -119.52992696 144.00263913 -125.25 139.3125 C-131.02036119 134.5857372 -136.86379729 129.98250244 -142.79296875 125.45703125 C-147.98595822 121.49080767 -153.10620961 117.43119905 -158.23828125 113.38671875 C-159.97989788 112.01582318 -161.72387885 110.64800009 -163.46875 109.28125 C-168.81997893 105.08792019 -174.15784254 100.88057244 -179.45507812 96.61914062 C-185.38671411 91.84763534 -191.37336132 87.16461867 -197.4375 82.5625 C-203.81644958 77.72006984 -210.06423312 72.74147209 -216.25927734 67.66650391 C-220.31005802 64.35423563 -224.40128826 61.10980749 -228.5625 57.9375 C-234.60488232 53.32699736 -240.5465234 48.60044898 -246.46484375 43.83203125 C-248.6483039 42.07455471 -250.84580978 40.34813386 -253.06640625 38.63671875 C-253.95199219 37.95222656 -254.83757812 37.26773438 -255.75 36.5625 C-256.50796875 35.98628906 -257.2659375 35.41007812 -258.046875 34.81640625 C-261.52470799 31.58202157 -262.89680917 28.89923435 -263.4375 24.1875 C-263.17423647 18.13243877 -260.72165488 13.6796633 -256.4375 9.5 C-248.88919207 6.2061929 -242.50896168 7.58066824 -234.99609375 10.484375 C-233.96845665 10.87956833 -233.96845665 10.87956833 -232.9200592 11.28274536 C-223.21655686 15.03829438 -213.57820273 18.96190164 -203.9375 22.875 C-201.85207382 23.71994619 -199.76662422 24.56483457 -197.68115234 25.40966797 C-162.86033673 39.52477485 -128.14523483 53.89279965 -93.44726562 68.30664062 C-88.81255216 70.2318932 -84.17745958 72.15623084 -79.54217529 74.08010864 C-76.96480853 75.15021217 -74.38790997 76.2214371 -71.81103516 77.29272461 C-62.23609428 81.26928098 -52.63808239 85.17874573 -43 89 C-39.19606737 76.18311442 -35.5194939 63.33909712 -32.02734375 50.43359375 C-31.0078211 46.69575284 -29.98684799 42.9583106 -28.96557617 39.22094727 C-28.27230609 36.66962774 -27.58406991 34.11756603 -26.90405273 31.56274414 C-25.90011683 27.80636449 -24.87227889 24.05722565 -23.83984375 20.30859375 C-23.54279037 19.17320663 -23.245737 18.03781952 -22.93968201 16.86802673 C-21.13550587 10.41569586 -19.13442538 5.47379663 -14 1 C-9.80895066 -1.09552467 -4.56413839 -0.41220622 0 0 Z " fill="#79EC87" transform="translate(574,367)"/>
</svg>
